<svg xmlns="http://www.w3.org/2000/svg" width="175.018" height="41.145" viewBox="0 0 175.018 41.145">
    <path id="EJN" d="M7747.14-1811.311a4.333,4.333,0,0,1-2.511-3.922v-6.991a4.356,4.356,0,0,1,4.375-4.335,4.356,4.356,0,0,1,4.376,4.335v4.014a60.6,60.6,0,0,0,18.881,2.922,58.649,58.649,0,0,0,18.605-2.9v-24.464a4.356,4.356,0,0,1,4.376-4.335,4.356,4.356,0,0,1,4.376,4.335v27.417a4.333,4.333,0,0,1-2.465,3.9c-.4.192-9.975,4.716-24.893,4.716C7757.37-1806.617,7747.551-1811.12,7747.14-1811.311Zm-59.854-.115a4.331,4.331,0,0,1-2.281-3.807v-23.912a4.331,4.331,0,0,1,2.281-3.807c.364-.2,9.079-4.81,24.1-4.81,14.75,0,24.932,3.938,25.358,4.105a4.323,4.323,0,0,1,2.452,5.63,4.39,4.39,0,0,1-5.673,2.433,67.577,67.577,0,0,0-22.137-3.5,52.233,52.233,0,0,0-17.633,2.8v4.765h28.422a4.356,4.356,0,0,1,4.376,4.335,4.356,4.356,0,0,1-4.376,4.336h-28.422v4.763a52.251,52.251,0,0,0,17.633,2.8,67.558,67.558,0,0,0,22.137-3.5,4.393,4.393,0,0,1,5.671,2.445,4.318,4.318,0,0,1-2.451,5.618,75.071,75.071,0,0,1-25.358,4.1C7696.365-1806.617,7687.65-1811.23,7687.286-1811.427Zm164.663,1.4c-11.848-18.553-29.7-25.149-38.228-27.328v25.01a4.356,4.356,0,0,1-4.375,4.336,4.356,4.356,0,0,1-4.377-4.336v-30.307a4.319,4.319,0,0,1,1.455-3.227,4.4,4.4,0,0,1,3.4-1.083,72.188,72.188,0,0,1,41.452,21.885v-17.575a4.355,4.355,0,0,1,4.375-4.335,4.355,4.355,0,0,1,4.376,4.335v30.307a4.34,4.34,0,0,1-3.158,4.165,4.425,4.425,0,0,1-1.218.171A4.386,4.386,0,0,1,7851.949-1810.025Z" transform="translate(-7685.005 1847.762)" fill="#ffc321"/>
</svg>
